<?xml version="1.0" encoding="utf-8"?>
<!-- Generator: Adobe Illustrator 26.0.3, SVG Export Plug-In . SVG Version: 6.00 Build 0)  -->
<svg version="1.1" id="Ebene_1" xmlns="http://www.w3.org/2000/svg" xmlns:xlink="http://www.w3.org/1999/xlink" x="0px" y="0px"
	 viewBox="0 0 61.38 68.12" style="enable-background:new 0 0 61.38 68.12;" xml:space="preserve">
<style type="text/css">
	.st0{fill:#4D4D4D;}
</style>
<g>
	<path d="M57.56,8.62c-0.58,0-1.17,0.11-1.76,0.32l-7.87,2.88V3.98C47.92,1.64,46.41,0,44.26,0C43.51,0,42.72,0.21,42,0.62
		L4.14,21.81c-3.69,2.06-4.15,5.31-4.14,7.9v34.56c0.01,2.3,1.54,3.9,3.72,3.9c0.8,0,1.61-0.22,2.36-0.64l37.74-21.12
		c2.5-1.57,3.74-3.16,4.11-5.7l8.81-3.22c3.1-1.11,4.67-3.11,4.67-5.93V12.33C61.42,10.18,59.79,8.62,57.56,8.62z M46.91,40.03
		l-0.07,0.03l-19.46,7.01l-7.63,8.9v-6.15l-2.99,1.08c-2.23,0.8-4.21-0.15-4.23-2.12V29.19c-0.02-1.97,1.77-4.21,4-5.01l30.38-10.94
		v0.01v25.3V40V40.03z"/>
	<polygon points="14.21,31.71 21,44.81 23.96,43.64 17.8,30.29 	"/>
	<path d="M38.83,31.13c-0.62-0.48-1.74-0.76-3.35-0.86c-1.22-0.07-2-0.15-2.33-0.23c-0.04-0.01-0.07-0.03-0.11-0.04l0.92-3.23
		c0.08-0.03,0.15-0.07,0.23-0.1c0.57-0.21,1.16-0.36,1.75-0.45c0.6-0.09,1.35-0.13,2.27-0.13l1.03-2.96
		c-0.89-0.02-1.74,0.03-2.55,0.13c-0.81,0.11-1.65,0.32-2.53,0.65c-1.08,0.4-2,0.91-2.79,1.49l-0.31,0.11l-0.04,0.15
		c-0.37,0.31-0.72,0.63-1.02,0.98c-0.97,1.15-1.43,2.41-1.36,3.77c0.04,0.72,0.22,1.29,0.56,1.72c0.02,0.03,0.06,0.05,0.08,0.08
		l-0.96,3.64c-0.41,1.8-0.64,3.03-0.69,3.71c-0.06-0.27-0.21-0.72-0.43-1.37c-0.22-0.65-0.44-1.21-0.64-1.68l-3.65-7.96l-3.62,1.35
		l6.53,13.23l3.91-1.46l0.19-0.68c1.19-0.05,2.49-0.33,3.92-0.86c1.96-0.73,3.47-1.7,4.53-2.9c1.05-1.21,1.55-2.51,1.48-3.89
		C39.79,32.33,39.45,31.6,38.83,31.13z M35.76,36.26c-0.41,0.43-1,0.79-1.79,1.08c-0.66,0.24-1.38,0.42-2.19,0.52
		c-0.31,0.04-0.65,0.07-1.01,0.09l1.28-4.52c0.26,0.03,0.55,0.05,0.85,0.07c1.13,0.07,1.88,0.14,2.25,0.23
		c0.37,0.09,0.65,0.21,0.85,0.38c0.2,0.16,0.3,0.4,0.32,0.7C36.36,35.34,36.17,35.83,35.76,36.26z"/>
</g>
<path class="st0" d="M32.04,33.3l0.97-3.43c-0.27-0.08-0.48-0.18-0.62-0.32c-0.15-0.16-0.24-0.39-0.25-0.67
	c-0.02-0.46,0.13-0.91,0.48-1.32c0.31-0.37,0.75-0.67,1.31-0.91l0.74-2.6l-3.31,1.23c-0.12,0.09-0.24,0.17-0.35,0.26l-1.74,6.55
	c0.33,0.38,0.73,0.68,1.24,0.88C30.88,33.12,31.4,33.23,32.04,33.3z"/>
<g>
</g>
<g>
</g>
<g>
</g>
<g>
</g>
<g>
</g>
<g>
</g>
<g>
</g>
<g>
</g>
<g>
</g>
<g>
</g>
<g>
</g>
<g>
</g>
<g>
</g>
<g>
</g>
<g>
</g>
</svg>
